HIERARCHY
ROOT pelvis
{
	OFFSET 0.000000 0.000000 0.946482
	CHANNELS 6 Xposition Yposition Zposition Xrotation Yrotation Zrotation
	JOINT spine
	{
		OFFSET 0.000000 0.000000 0.000000
		CHANNELS 6 Xposition Yposition Zposition Xrotation Yrotation Zrotation
		JOINT spine.001
		{
			OFFSET 0.000000 -0.014824 0.282854
			CHANNELS 3 Xrotation Yrotation Zrotation
			JOINT neck
			{
				OFFSET 0.000000 0.034519 0.281131
				CHANNELS 6 Xposition Yposition Zposition Xrotation Yrotation Zrotation
				JOINT face
				{
					OFFSET 0.000000 0.003779 0.216495
					CHANNELS 6 Xposition Yposition Zposition Xrotation Yrotation Zrotation
					End Site
					{
						OFFSET -0.000000 -0.031188 -0.009112
					}
				}
			}
			JOINT shoulder.L
			{
				OFFSET 0.000000 0.034519 0.281131
				CHANNELS 6 Xposition Yposition Zposition Yrotation Xrotation Zrotation
				JOINT upper_arm.L
				{
					OFFSET 0.181840 0.000000 0.000000
					CHANNELS 6 Xposition Yposition Zposition Xrotation Yrotation Zrotation
					JOINT forearm.L
					{
						OFFSET 0.301621 0.000135 0.001119
						CHANNELS 6 Xposition Yposition Zposition Xrotation Yrotation Zrotation
						End Site
						{
							OFFSET 0.295879 -0.005041 -0.001544
						}
					}
				}
			}
			JOINT shoulder.R
			{
				OFFSET 0.000000 0.034519 0.281131
				CHANNELS 6 Xposition Yposition Zposition Yrotation Xrotation Zrotation
				JOINT upper_arm.R
				{
					OFFSET -0.181840 0.000000 0.000000
					CHANNELS 6 Xposition Yposition Zposition Xrotation Yrotation Zrotation
					JOINT forearm.R
					{
						OFFSET -0.299418 0.000135 0.001119
						CHANNELS 6 Xposition Yposition Zposition Xrotation Yrotation Zrotation
						End Site
						{
							OFFSET -0.290716 -0.004951 -0.001543
						}
					}
				}
			}
		}
	}
	JOINT pelvis.L
	{
		OFFSET 0.000000 0.000000 0.000000
		CHANNELS 6 Xposition Yposition Zposition Yrotation Xrotation Zrotation
		End Site
		{
			OFFSET 0.101646 0.000000 0.000000
		}
	}
	JOINT pelvis.R
	{
		OFFSET 0.000000 0.000000 0.000000
		CHANNELS 6 Xposition Yposition Zposition Yrotation Xrotation Zrotation
		End Site
		{
			OFFSET -0.101646 0.000000 0.000000
		}
	}
	JOINT thigh.L
	{
		OFFSET 0.101646 0.000000 0.000000
		CHANNELS 6 Xposition Yposition Zposition Xrotation Yrotation Zrotation
		JOINT shin.L
		{
			OFFSET 0.022393 0.000000 -0.427281
			CHANNELS 6 Xposition Yposition Zposition Xrotation Yrotation Zrotation
			JOINT foot.L
			{
				OFFSET 0.022450 0.000000 -0.428364
				CHANNELS 3 Xrotation Yrotation Zrotation
				End Site
				{
					OFFSET 0.019133 -0.195080 -0.081917
				}
			}
			JOINT heel.02.L
			{
				OFFSET 0.022450 0.000000 -0.428364
				CHANNELS 3 Xrotation Yrotation Zrotation
				End Site
				{
					OFFSET 0.097148 0.040252 -0.084693
				}
			}
		}
	}
	JOINT thigh.R
	{
		OFFSET -0.101646 0.000000 0.000000
		CHANNELS 6 Xposition Yposition Zposition Xrotation Yrotation Zrotation
		JOINT shin.R
		{
			OFFSET -0.021811 0.000000 -0.416178
			CHANNELS 6 Xposition Yposition Zposition Xrotation Yrotation Zrotation
			JOINT foot.R
			{
				OFFSET -0.023542 0.000000 -0.449215
				CHANNELS 3 Xrotation Yrotation Zrotation
				End Site
				{
					OFFSET -0.019950 -0.203411 -0.085416
				}
			}
			JOINT heel.02.R
			{
				OFFSET -0.023542 0.000000 -0.449215
				CHANNELS 3 Xrotation Yrotation Zrotation
				End Site
				{
					OFFSET -0.119885 0.040252 -0.073728
				}
			}
		}
	}
}
MOTION
Frames: 4
Frame Time: 0.041667
0.065020 -0.049066 0.932166 -0.000000 0.000000 -10.312811 -0.000000 0.000000 0.000000 -6.332802 5.573980 0.602692 9.989724 0.381294 3.107155 -0.000000 0.034519 0.281131 17.676074 2.431532 6.229812 -0.000000 0.003779 0.216495 3.065429 -0.000000 0.000009 -0.000000 0.034519 0.281130 -0.683190 0.000499 0.083881 0.181840 -0.000000 -0.000000 -16.500352 68.149449 24.077334 0.301621 0.000135 0.001119 23.442794 40.252798 -57.671344 -0.000000 0.034519 0.281131 -0.628237 0.000424 0.077164 -0.181839 0.000000 -0.000000 -21.183439 -67.530210 -31.109661 -0.299418 0.000135 0.001119 19.435308 -34.872364 55.969036 -0.000000 0.000000 0.000000 5.477374 -0.000000 0.000022 0.000000 0.000000 0.000000 5.477405 -0.000001 0.000002 0.101182 0.000000 -0.009702 6.674423 7.115008 -0.065442 0.022393 -0.000000 -0.427281 4.921684 -2.561011 0.367742 -13.967839 -4.094924 4.593770 -14.954703 49.130176 34.082463 -0.101182 0.000000 0.009702 1.093335 0.425201 -0.061346 -0.021811 -0.000000 -0.416178 6.091320 5.513799 -0.611581 -6.060605 2.833086 -4.575308 -16.449561 -48.585431 -44.534179 
0.064645 -0.051528 0.930718 -0.000000 0.000000 -10.977361 0.000000 -0.000000 0.000000 -6.817220 5.496916 0.617883 9.989090 0.391746 3.192328 -0.000000 0.034519 0.281131 18.404512 2.608503 7.207613 0.000000 0.003779 0.216495 2.625102 -0.000001 0.000000 -0.000000 0.034518 0.281131 -0.781986 0.000654 0.095999 0.181840 0.000000 0.000000 -17.459026 68.488533 25.299775 0.301621 0.000135 0.001119 23.023895 40.337222 -56.645805 -0.000000 0.034518 0.281131 -0.727073 0.000566 0.089225 -0.181839 -0.000000 0.000000 -20.282838 -67.672742 -29.741864 -0.299418 0.000135 0.001119 19.064834 -34.497284 55.586269 0.000000 -0.000000 0.000000 5.527837 0.000002 -0.000028 0.000000 -0.000000 0.000000 5.527867 -0.000001 0.000000 0.101173 -0.000000 -0.009792 7.305673 7.170759 -0.075237 0.022393 0.000000 -0.427281 3.913681 -2.475747 0.289461 -13.180317 -4.390139 5.338784 -15.843085 49.529390 34.025083 -0.101173 -0.000000 0.009792 1.769595 0.588791 -0.101813 -0.021811 -0.000000 -0.416178 5.127667 5.175640 -0.499630 -6.148128 2.688379 -4.252253 -15.840172 -48.187022 -44.292356 
0.064377 -0.053498 0.929520 -0.000000 0.000000 -11.573061 0.000000 -0.000000 0.000000 -7.193028 5.420963 0.627354 9.987896 0.411980 3.357016 0.000000 0.034519 0.281131 18.874283 2.747967 7.938885 0.000000 0.003779 0.216495 2.342887 -0.000001 0.000002 0.000000 0.034519 0.281131 -0.853317 0.000782 0.104751 0.181840 -0.000000 -0.000000 -18.320915 68.738020 26.409541 0.301621 0.000135 0.001119 22.757963 40.477122 -55.878037 0.000000 0.034519 0.281131 -0.798364 0.000684 0.098042 -0.181839 0.000000 0.000000 -19.501262 -67.765189 -28.572549 -0.299418 0.000135 0.001119 18.824819 -34.174285 55.454634 0.000000 -0.000000 0.000000 5.633298 -0.000005 0.000109 0.000000 -0.000000 0.000000 5.633326 -0.000001 0.000000 0.101155 0.000000 -0.009978 7.806876 7.232248 -0.084642 0.022393 -0.000000 -0.427281 3.028979 -2.401773 0.222047 -12.624494 -4.650511 5.969563 -16.453161 49.751658 33.854843 -0.101155 -0.000000 0.009978 2.191332 0.716842 -0.128526 -0.021811 0.000000 -0.416178 4.527770 4.933524 -0.431596 -6.341370 2.545581 -3.902651 -15.351128 -47.854160 -44.045404 
0.064209 -0.054951 0.928687 -0.000000 0.000000 -12.041625 0.000000 0.000000 0.000000 -7.447313 5.356052 0.631887 9.986274 0.438740 3.575627 -0.000000 0.034519 0.281131 19.049495 2.838245 8.358420 -0.000000 0.003779 0.216495 2.246234 -0.000000 -0.000005 -0.000000 0.034518 0.281131 -0.906714 0.000881 0.111302 0.181840 -0.000000 0.000000 -19.083726 68.851654 27.433716 0.301621 0.000135 0.001119 22.677485 40.732608 -55.365336 -0.000000 0.034518 0.281131 -0.851839 0.000777 0.104543 -0.181839 0.000000 -0.000000 -18.993368 -67.781903 -27.834670 -0.299418 0.000135 0.001119 18.802148 -34.093115 55.519623 0.000000 0.000000 0.000000 5.748762 -0.000000 0.000029 0.000000 0.000000 0.000000 5.748729 -0.000001 -0.000001 0.101135 0.000000 -0.010182 8.151861 7.287049 -0.092328 0.022393 -0.000000 -0.427281 2.386540 -2.343853 0.173734 -12.324849 -4.863874 6.444942 -16.734746 49.802085 33.635089 -0.101135 -0.000000 0.010181 2.355831 0.792119 -0.139718 -0.021811 -0.000000 -0.416178 4.314249 4.812156 -0.406675 -6.640712 2.415363 -3.550625 -15.026216 -47.616886 -43.796334 
